<?xml version="1.0" standalone="no"?>
<!DOCTYPE svg PUBLIC "-//W3C//DTD SVG 20010904//EN"
 "http://www.w3.org/TR/2001/REC-SVG-20010904/DTD/svg10.dtd">
<svg version="1.0" xmlns="http://www.w3.org/2000/svg"
 width="128.000000pt" height="128.000000pt" viewBox="0 0 128.000000 128.000000"
 preserveAspectRatio="xMidYMid meet">

<g transform="translate(0.000000,128.000000) scale(0.100000,-0.100000)"
fill="#000000" stroke="none">
<path d="M306 1131 c-4 -6 7 -32 24 -59 45 -74 41 -109 -20 -172 -95 -97 -143
-247 -121 -377 15 -87 59 -177 116 -238 25 -27 45 -51 45 -53 0 -2 -12 -19
-26 -37 -14 -19 -23 -39 -19 -45 4 -6 114 -10 325 -10 l318 0 67 80 c36 44 64
84 60 90 -3 5 -24 10 -45 10 l-39 0 34 64 c144 277 -28 604 -342 647 l-82 12
-3 46 -3 46 -142 3 c-84 1 -144 -1 -147 -7z m256 -438 l3 -408 228 -3 228 -2
-43 -50 -43 -50 -288 0 -288 0 20 29 c20 28 21 41 21 423 0 375 -1 394 -20
423 -11 17 -20 33 -20 38 0 4 45 7 100 7 l100 0 2 -407z m242 269 c138 -65
226 -195 234 -348 5 -96 -11 -159 -59 -239 -33 -54 -34 -55 -80 -55 l-47 0 34
37 c45 48 72 107 86 181 23 122 -39 263 -145 336 -51 35 -145 66 -199 66 -25
0 -28 4 -28 31 l0 32 69 -5 c48 -4 89 -14 135 -36z m-468 -189 c-26 -39 -56
-138 -56 -183 0 -45 30 -144 55 -182 18 -27 25 -51 25 -85 l-1 -48 -35 40
c-19 22 -49 69 -67 105 -30 61 -32 71 -32 170 0 99 2 110 32 170 18 36 47 83
65 105 l33 40 3 -47 c2 -37 -2 -55 -22 -85z m444 91 c180 -98 215 -348 69
-494 l-50 -50 -99 0 -100 0 0 291 0 292 64 -5 c44 -4 80 -14 116 -34z m-421
-276 c-1 -148 -1 -152 -17 -118 -24 53 -27 159 -7 219 9 28 18 51 21 51 2 0 4
-69 3 -152z"/>
</g>
</svg>
